<svg xmlns="http://www.w3.org/2000/svg" viewBox="0 0 512 512" role="img" aria-labelledby="title desc">
  <title id="title">NEODENT MES</title>
  <desc id="desc">Ícone premium do aplicativo NEODENT MES.</desc>
  <defs>
    <linearGradient id="bg" x1="52" y1="34" x2="466" y2="482" gradientUnits="userSpaceOnUse">
      <stop stop-color="#172235"/>
      <stop offset="0.5" stop-color="#0B1220"/>
      <stop offset="1" stop-color="#060A12"/>
    </linearGradient>
    <linearGradient id="brand" x1="112" y1="96" x2="404" y2="414" gradientUnits="userSpaceOnUse">
      <stop stop-color="#F279BC"/>
      <stop offset="0.48" stop-color="#D9469B"/>
      <stop offset="1" stop-color="#8D2D76"/>
    </linearGradient>
    <linearGradient id="metal" x1="120" y1="90" x2="384" y2="422" gradientUnits="userSpaceOnUse">
      <stop stop-color="#FFFFFF"/>
      <stop offset="0.52" stop-color="#C8D1DE"/>
      <stop offset="1" stop-color="#77859A"/>
    </linearGradient>
    <filter id="shadow" x="-20%" y="-20%" width="140%" height="140%">
      <feDropShadow dx="0" dy="24" stdDeviation="28" flood-color="#02050B" flood-opacity="0.58"/>
    </filter>
  </defs>
  <rect width="512" height="512" rx="118" fill="url(#bg)"/>
  <rect x="20" y="20" width="472" height="472" rx="100" fill="none" stroke="#273448" stroke-width="4"/>
  <circle cx="256" cy="242" r="166" fill="#D9469B" opacity="0.06"/>
  <g filter="url(#shadow)" transform="translate(74 70) scale(2.84)">
    <path d="M31 21h39c21 0 37 16 37 36v14c0 20-16 36-37 36H31c-7 0-12-5-12-12V33c0-7 5-12 12-12Z" fill="url(#metal)"/>
    <path d="M42 36h28c12 0 22 9 22 21v14c0 12-10 21-22 21H42c-5 0-9-4-9-9V45c0-5 4-9 9-9Z" fill="#0D1422"/>
    <path d="M46 50h22c5 0 9 4 9 9v10c0 5-4 9-9 9H46c-3 0-5-2-5-5V55c0-3 2-5 5-5Z" fill="url(#brand)"/>
    <circle cx="89" cy="43" r="7" fill="url(#brand)"/>
    <rect x="85" y="55" width="8" height="29" rx="4" fill="url(#brand)"/>
  </g>
  <text x="256" y="438" text-anchor="middle" fill="#F4F7FB" font-family="Arial, sans-serif" font-size="34" font-weight="800" letter-spacing="7">NEOMES</text>
</svg>